<?xml version="1.0" encoding="UTF-8"?>
<svg xmlns="http://www.w3.org/2000/svg" version="1.1" viewBox="0 0 1024 1024">
  <defs>
    <style>
      .cls-1 {
        fill: #d90022;
      }

      .cls-2 {
        fill: #d60223;
      }

      .cls-3 {
        fill: #fdfdfd;
      }
    </style>
  </defs>
  <!-- Generator: Adobe Illustrator 28.7.10, SVG Export Plug-In . SVG Version: 1.2.0 Build 236)  -->
  <g>
    <g id="Layer_1">
      <g>
        <path class="cls-2" d="M447.1548,824.4976c-21.5881,21.4358-44.3351,40.925-76.0892,45.2746-7.159.9806-14.2869.7241-21.2526-1.1741-11.8081-3.2176-15.8631-11.9461-10.9183-23.1714,3.1323-7.1107,8.0369-13.0488,12.9638-18.9145,25.0517-29.8254,39.2204-64.2171,43.8788-102.7802.7289-6.0342.029-8.2443-6.9005-8.2367-24.8811.0275-49.6481-1.6231-73.6036-9.2805,4.6382-.931,9.3482-2.1048,13.9838-.4761,11.3789,3.9979,23.0392,6.2652,35.1079,6.048,5.202-.0936,11.1279,1.725,15.3663-2.0186,8.0366-7.0983,18.2243-6.254,27.5274-8.6168,4.2068-1.0684,8.3223.913,12.2675,1.9935,3.4699.9503,2.1052,4.9147,2.5984,7.6397.266,1.4699,1.4594,2.9376,2.5755,2.1009,3.3294-2.4959,9.8767-2.2117,8.404-9.1933-.7571-3.5892-.7384-7.4157-1.9582-10.8166-1.8975-5.29-1.7749-9.2727,6.5114-10.9157-6.9132-2.8934-10.8232-5.9268-11.4893-11.8896-.2141-1.9166-2.3341-3.0937-4.3376-2.116-1.7892.8732-1.5617,2.8336-.449,4.0605,3.7547,4.1406,1.5753,8.4062.6152,12.6998-.9216,4.1215-3.5666,4.1537-5.3586,1.3569-2.5009-3.903-5.4939-6.0638-10.0176-6.7133-1.7396-.2498-3.4288-1.4516-3.5271-3.7277-.1013-2.3463,1.3631-2.8672,3.3128-3.5818,5.3018-1.943,9.2836-6.7424,12.6362-10.3049,6.1086-6.4913-6.4581-8.1446-6.8133-14.2442-.1601-2.7503-3.2118-2.8797-5.0457-1.8218-3.9637,2.2863-9.2761-.2418-12.6153,3.7916q.9494-10.1836-7.2417-7.2306c2.1057-4.8621,9.3478-4.4187,10.6703-10.6128.3112-1.4575,2.9232.3386,3.3736,2.4571.7183,3.3792,2.2196,3.8681,4.7608,1.2967,7.6255-7.7159,13.4255-7.0698,19.7639,2.0899,1.1104,1.6046.8357,4.3023,3.7944,4.4427,1.9025.0903,19.4603-10.8237,20.0861-12.6875.084-.2501.254-.4882.274-.7405.318-4.0094,1.9594-7.2778,4.1543-10.744,2.0452-3.2298,2.9576-8.1675.833-11.6932-1.042-1.7292-5.0993-3.2505-7.9896-1.5119-10.0084,6.0205-20.9647,6.7803-32.0919,5.6093-8.1593-.8586-13.1282,1.6085-16.2462,9.6445-2.824,7.278-7.3819,8.4504-13.8705,4.2389-7.4273-4.8209-16.2539-5.8869-23.9527-9.9523-4.5103-2.3816-7.6769,1.2567-9.5345,4.7568-2.1991,4.1436.2288,7.136,4.1594,8.6474,3.9454,1.5172,7.0185,3.6811,7.6368,8.1174.2007,1.4403.5599,3.3432-1.4315,4.0321-3.4942,1.2088-16.328-5.931-15.51-9.1528,2.3966-9.4395-3.1864-14.6091-8.8244-20.2163-1.8521-1.842-2.4562-4.5076-2.7753-7.2469-.6857-5.8866-4.2331-8.7049-10.1856-8.6574-8.1877.0653-16.3763.018-24.5646.0142-11.1071-.0051-13.8256-2.3845-16.142-13.6905-1.828-8.9223,1.3986-18.7571-7.1163-26.6688-2.5069-2.3293-2.8908-9.0982-7.9335-8.4069-4.746.6506-8.4355-1.7573-12.6862-1.7289-1.5059.0101-2.086,1.4155-2.169,2.8422-.4677,8.0377-3.6399,6.5605-8.1696,2.5956-3.105-2.7178-6.2721-3.3224-6.709,2.4336-4.3389-10.9275-8.6783-21.8554-13.0177-32.7833,6.6744-3.2009,4.2973,5.139,7.666,6.6692q.8911-7.878,9.3764-16.0564c.5027-.4857,1.0956-1.7458.899-1.9602-4.6069-5.0256-1.972-11.0435-2.8086-16.5537-.394-2.5949-.4155-7.1258-4.1363-8.8511-2.3111-1.0716-5.7728-1.2995-4.893-4.9398.7495-3.1009,4.1036-1.4039,6.1444-2.2747,2.2251-.9494,4.5-1.4294,6.9469-1.1197,14.705,1.8605,14.456,1.7987,17.1932-11.8981.741-3.708.3239-5.2027-3.2188-6.3513-3.9502-1.2807-6.8818-3.714-7.1796-8.4572-.1597-2.544-2.2989-4.3528-4.2199-5.5137-7.1522-4.3221-9.1191-9.1804-1.7062-15.5146-2.9676-1.7583-7.0307.9988-8.1445-3.636-.9025-3.7559-2.0129-9.2948-5.7682-9.6103-4.4698-.3755-3.8907,5.9811-6.0668,9.0845-3.5791,5.1041-4.1315,10.9465.5998,16.2659,2.3963-1.6304,1.1809-3.8623,2.0307-5.3863,1.9397-3.4784,6.7541-4.4224,7.4157-1.5195,1.2767,5.6016.1094,11.6919,7.9159,13.1221.1186.0217.2848,1.1231.0573,1.4908-2.6205,4.2352,1.4034,9.4179-.8632,12.8263-3.3299,5.0076-8.6127-.2587-13.1862.4847-7.0778,1.1505-14.0929,1.0377-13.3134-9.7271.1644-2.271-1.7971-4.9875-3.3803-7.0335-3.4033-4.3983-8.1154-6.6224-13.5394-4.6741-4.8063,1.7264-4.8252,6.3957-4.705,10.6711.0846,3.0078-.9614,5.4774-2.2503,8.1886-3.0865,6.4927-.7517,11.8873,5.5257,13.8968,1.8371.5881,3.3958,2.2977,2.0008,3.038-3.9404,2.0909,2.1064,13.2831-8.3018,9.0023-.2931-.1205-1.4633.8404-1.5299,1.3824-.6712,5.4679-1.2442,10.9494-1.7308,16.4372-.1197,1.3503.3517,2.722,1.9535,2.9778,1.6235.2592,2.7261-.9085,2.5272-2.2537-.6004-4.0608,3.3941-6.2367,3.6551-10.1791.2391-3.6118,3.0708-5.2235,6.9228-2.955,4.2268,2.4893,8.3296,5.1841,13.6409,5.2656,1.9164.0294,4.8221,2.7032,3.6315,4.2199-3.0408,3.8736.3774,7.6768-.9048,11.2965-3.6205-4.1391-7.0392-8.4793-10.9113-12.3682-5.2795-5.3024-6.2079-4.9328-7.9775,2.5678-5.2911,22.427-3.2866,44.3896,4.3223,65.9784-4.6762,3.2472-9.4534,6.7607-15.3129,6.7145-4.0925-.0322-9.1083,4.546-11.7175.5576-2.2657-3.4634,4.4782-4.3773,5.879-7.7777,2.5806-6.2645,6.8078-8.6142,12.8407-3.5632.9622.8055,2.2351,1.9242,3.3134.3975.465-.6584.3041-2.0037.02-2.909-3.3616-10.7117-5.5296-21.5325-5.8819-32.8762-.1825-5.8784.2119-12.6807-4.8289-18.6182-1.9722,4.8447-1.0607,8.568-1.2438,12.1975-.5317,10.5355-11.9411,21.1482-22.5598,20.8898,18.2424-8.4511,21.0635-24.0297,20.8711-42.0848-.3475-32.6247,5.7585-64.1468,19.8933-93.8115,2.5363-5.3229,2.2075-10.6674,1.5224-16.263-6.729-54.9568-2.8103-108.7321,18.232-160.5381,8.3931-20.6638,18.8071-40.2357,32.5101-57.8974,8.4847-10.9358,12.3709-10.8314,20.0657.7574,14.8073,22.3006,33.4888,41.6171,48.6095,63.6534,4.6341,6.7535,9.2544,13.5675,13.1867,20.7347,2.929,5.3386,5.1097,5.8885,9.8961,1.7834,20.9536-17.9711,43.7033-33.297,68.6244-45.3431,17.5392-8.4779,19.2304-7.6296,19.5866,12.0718.2688,14.8677,2.1767,29.4866,5.111,44.0414,1.1335,5.6226,3.4185,7.0709,8.5895,4.5053,4.968-2.4649,10.0264-4.801,15.2036-6.7784,7.3806-2.8188,10.0953-1.4162,10.5117,6.135.2992,5.4253,2.5517,7.6694,7.6324,7.8039.5257.0139,1.0778.0501,1.5685.219,10.8861,3.7469,18.3424.0633,25.9246-8.6793,34.602-39.8973,79.0633-66.4464,125.3914-90.2329,25.4277-13.0555,51.5963-24.3819,78.8654-33.0354,11.1962-3.553,13.5701-2.2073,15.5887,9.3221,12.2344,69.8791,11.2073,138.9732-13.1853,206.4886-12.5295,34.6798-32.8542,64.4501-59.2604,89.9673-6.3686,6.1543-8.3668,12.1144-5.7348,20.3569,2.0041,6.2759,3.4683,12.7492,4.7753,19.2151,1.1145,5.514,3.1424,7.1219,9.0554,5.1106,21.0442-7.158,42.7272-9.9465,64.856-6.6496,6.3694.949,8.3239-1.1184,8.5419-7.2659.6807-19.1893,6.4092-36.9441,17.1786-52.8175,2.632-3.8794,5.2421-12.6248,12.5692-3.6959,1.5652,1.9074,3.2506-.6641,4.3768-1.9528,13.5708-15.5276,31.1661-25.0394,49.5129-33.5466,8.1389-3.7739,16.0492-8.0611,23.9412-12.3404,5.2098-2.8249,8.8583-2.8179,8.5479,4.3135-.2552,5.8651,2.2648,6.3228,7.2465,5.4155,17.2189-3.1359,34.1905-6.9192,49.9657-14.8697,13.925-7.018,25.5918-16.7466,35.4175-28.8147,2.2504-2.7639,4.3475-7.1283,8.5353-5.9981,4.5695,1.2333,4.0981,6.3526,4.7173,10.0605,2.9933,17.9256,2.25,35.8188-1.0389,53.6492-.7522,4.0778-2.3578,8.229,3.6501,10.3637,3.0067,1.0683,2.0871,4.3854,1.3446,7.015-7.3562,26.0535-18.4429,50.0463-38.06,69.3856-1.3906,1.3709-4.2699,2.2806-3.3719,4.7592.8417,2.3234,3.726,1.2586,5.6231,1.9448,4.0771,1.4749,10.379-.5465,11.9795,4.2688,1.5099,4.5427-3.6489,7.8128-6.5591,11.0001-26.7553,29.3025-59.4063,44.1546-99.6375,40.0696-1.4856-.1508-2.9999-.0192-5.0553-.0192,4.7942,9.8037,9.6236,18.8676,13.7328,28.247,9.2174,21.0391,13.4742,43.343,15.6385,66.0659.7407,7.7773,2.9736,13.3086,11.6155,15.5524,9.6756,2.5122,15.5291,9.8074,18.158,19.3461,7.2621,26.3494,9.0484,53.1522,4.9798,80.1425-1.4746,9.7819-5.005,19.2265-16.2055,22.4398-11.3356,3.2521-20.0922-1.8521-27.8708-9.2342-9.2504-8.779-14.533-20.0568-18.8336-31.7855-2.037-5.5553-4.9205-8.2891-11.4271-8.3923-16.9495-.269-30.9727-8.1651-43.3077-19.1367-5.9128-5.2592-11.338-11.0943-16.7178-16.9147-3.4435-3.7256-6.5428-5.2803-11.6468-2.5124-5.0003,2.7118-5.6151,5.9124-4.4412,10.9939,2.8534,12.3524,5.634,24.756,7.5705,37.274,1.3583,8.7806,3.0603,18.507-5.1441,25.1522-8.3943,6.7991-17.6286,3.2052-26.3916.0968-10.7259-3.8047-19.3455-10.8594-26.9985-19.0039-4.3838-4.6654-8.0499-5.0671-14.4-2.8308-20.2522,7.132-33.5069,20.6909-44.9041,38.6527-21.2376,33.4702-48.5223,61.9973-79.7224,86.5648-18.7325,14.7504-39.7365,22.8201-64.0589,20.4096-19.3035-1.9132-25.8931-13.2544-17.421-30.7579,5.9126-12.2156,14.981-22.3851,22.5285-33.5414,9.9597-14.7218,18.3919-30.2205,25.4741-46.5148,2.2856-5.2585,1.3055-7.7812-4.5168-8.391-2.8762-.3013-5.7094-1.0889-8.5376-1.7595-17.2005-4.0782-17.1332-4.0447-27.1946,10.9746-5.4251,8.0984-10.779,16.2879-18.185,22.8241.0853-3.5287-2.506-4.3779-5.036-6.0181-6.045-3.9192-14.5813-2.548-19.2047-8.3088-3.2854-4.0936-7.7499-6.1244-11.2654-9.3814-8.0593-7.4665-19.6898-9.5858-26.5483-18.6204-2.0202-2.6611-3.4075-6.0278-6.9534-7.3146-1.7369-.6303-4.349-1.7562-4.0712,1.1351.6711,6.9843-4.1933,11.6733-6.1857,17.5082-1.7566,5.1443-2.8571,11.4521,2.5717,14.1358,7.8748,3.8931,11.6489,10.1565,14.4777,17.639.7115,1.8819,2.0026,4.0552,3.7189,3.4104,8.4742-3.1838,11.792,1.9903,14.942,8.2469.5429,1.0784,2.6563,1.6353,4.143,1.9233,7.1526,1.3857,14.6932.8515,21.4069,4.3955ZM468.9044,590.8964c3.3294,3.5574,6.0473,7.2689,6.22,12.5617.0634,1.9417.5467,5.2083,3.9058,5.0161,6.0505-.3463,10.6881-2.8528,14.1932-8.2276,2.944-4.5144.8944-7.0616-1.6522-10.4109-1.5611-2.0532-3.9131-5.4543-1.2686-7.5303,2.255-1.7703,3.6302,1.6932,5.2448,3.3445,4.1248,4.2184,10.6001,3.8675,13.6304,1.1519,2.9386-2.6333,5.8802-10.475,2.044-13.401-6.2787-4.7891-5.8783-8.9242-2.0039-14.8767-6.2523-.6138-13.4768-5.6656-13.266,5.8946.007.3821-.6585.7651-.9875,1.1667-5.4639,6.6678-10.5071,13.6481-16.2931,20.1008-2.9536,3.294-5.5555,5.0905-9.6875,5.1416.1257-1.8776,1.7819-2.4664,2.9425-3.4518,26.0434-22.1112,34.0991-52.5899,22.2595-84.2633,8.5019-.2883,14.3151,5.2791,10.9779,11.2172-3.7385,6.6523-1.4961,13.3903-2.2165,20.0447-.1602,1.4798-.236,3.6939,1.8868,3.609,2.2033-.0881,3.1584-2.1806,2.4353-4.107-2.572-6.8521,1.6809-9.9831,6.4484-13.3807,9.538-6.7973,9.0291-11.2254-1.6269-16.692-1.8565-.9523-3.9625-1.4087-5.8588-2.2961-1.3385-.6264-3.6615-1.4897-2.5012-3.2457,4.0553-6.1372,1.9905-7.0832-4.1401-5.633-1.9559.4626-3.4154-.9771-4.4506-2.6746-1.0929-1.7924-2.1676-4.0664-4.8137-2.3767-2.0733,1.3239-2.0725,3.7557-1.5565,5.7443.6504,2.5064,1.9642,4.8407,2.9918,7.2492-22.8889-3.3418-44.2199,1.9733-64.0611,12.8894-31.0791,17.0989-48.4286,43.9855-53.137,78.9375-1.5509,11.5129-.0116,13.0765,10.8679,14.832,17.7074,2.8572,35.1885,1.8034,52.5781-2.7626,11.0745-2.9078,20.5796-9.0842,30.8946-13.5712ZM372.2815,549.9289c-3.4262-1.2957-6.3853,1.347-9.4705,3.9911-1.9072,1.6346-5.8337,2.9707-3.5755,5.7233,2.8433,3.4658,3.9495-1.2199,5.643-2.6212,1.4418-1.193,2.7951-2.8073,4.716-1.1326,1.907,1.6624,2.185,4.3416.0491,5.367-5.0272,2.4135-5.8287,8.4659-10.8123,11.0898-4.2741,2.2504-1.58,6.4289.461,8.76,1.937,2.2124,3.224,7.9915,6.9442,5.4953,4.0413-2.7118,9.276-6.3094,9.3085-11.9633.0318-5.5348,2.8312-9.9831,4.1579-14.9142,2.5249-9.3842,2.8202-9.8081-7.4213-9.7952ZM420.4009,753.0145h-.0455c0,2.8894-.059,5.7804.0202,8.6677.0553,2.0127-.563,4.4708,2.0991,5.3593,2.9664.9901,3.8427-1.7926,5.5988-3.2234,7.2548-5.9105,4.9199-13.0895,3.5435-20.5027-.6458-3.4782-2.0588-5.5347-5.2099-5.7158-3.7731-.2168-5.6486,2.4787-5.9493,5.9648-.2699,3.1284-.0568,6.2984-.0568,9.4501ZM253.8148,477.0244c.005,6.3356-7.5584,10.7636-5.7496,13.063,4.2667,5.424,4.621,11.957,7.8359,17.3734.9378,1.5799,3.5833,4.1361,5.487.5523,3.7866-7.1286.1378-23.3239-7.5733-30.9887ZM499.8334,613.2408c.2411,1.3423-.939,4.9267,2.6614,4.4158,3.1819-.4515,6.6066-2.2758,6.6333-6.4485.0124-1.9295,1.3133-5.4437-2.7465-4.8413-3.3009.4898-6.9526,1.3616-6.5482,6.8739ZM472.0978,599.1095c-3.2687,1.3697-5.8627-3.2044-8.4985.5761-.7597,1.0895.2818,2.6242,1.4359,3.255,3.3507,1.8316,5.2392.0586,7.0626-3.8312ZM379.7835,790.2571c.091,3.2261.6558,5.6054,4.1706,5.3172,1.2845-.1053,2.8052-1.2806,2.3134-2.5393-1.1015-2.8196-3.8105-2.5331-6.484-2.778ZM365.8895,604.8951c-.2898-2.9769-.8792-4.9598-3.3532-5.4677-.5125-.1052-1.7586.7302-1.7368,1.073.1701,2.6727,1.6707,4.1477,5.09,4.3947ZM504.8307,625.2513c-.3462.5647-1.152,1.335-1.2732,2.2012-.1939,1.3859,1.0246,1.5916,2.0832,1.5092,1.2512-.0973,1.704-1.0423,1.7047-2.1492.001-1.303-.8381-1.7138-2.5147-1.5613ZM459.0991,602.9442c.4311-1.2418-.2274-1.7406-.936-1.8151-.6317-.0664-1.6623.1357-1.9024.5639-.6033,1.0757.0533,1.8715,1.2142,1.8903.614.0099,1.2361-.4749,1.6243-.6391ZM513.9755,551.1412c-.431-.8315-.625-1.8323-1.0897-1.9796-1.1829-.375-1.8335.5253-1.7469,1.5947.0445.5492.6709,1.3488,1.1717,1.4707.4099.0997,1.0233-.6371,1.6649-1.0859ZM522.337,555.694c.1868-.4391.6158-.973.4916-1.2905-.1222-.3124-.8054-.4053-1.2425-.5945-.1875.4377-.6187.9724-.494,1.2861.1252.3149.8044.4095,1.2449.599Z"/>
        <path class="cls-1" d="M238.8896,551.7462c.4373-5.7556,3.6044-5.1511,6.7095-2.4332,4.5297,3.9649,7.7019,5.442,8.1696-2.5956.083-1.4267.6631-2.8322,2.169-2.8422,4.2507-.0284,7.9402,2.3795,12.6862,1.7289,5.0427-.6914,5.4266,6.0776,7.9335,8.4069,8.5149,7.9117,5.2883,17.7465,7.1163,26.6688,2.3164,11.306,5.0348,13.6854,16.142,13.6905,8.1882.0038,16.3768.0512,24.5646-.0142,5.9525-.0475,9.4999,2.7708,10.1856,8.6574.3191,2.7393.9231,5.4049,2.7753,7.2469,5.6379,5.6072,11.2209,10.7768,8.8244,20.2163-.818,3.2218,12.0158,10.3615,15.51,9.1528,1.9915-.6889,1.6323-2.5918,1.4315-4.0321-.6183-4.4364-3.6914-6.6003-7.6368-8.1174-3.9305-1.5115-6.3585-4.5039-4.1594-8.6474,1.8576-3.5001,5.0243-7.1383,9.5345-4.7568,7.6988,4.0653,16.5254,5.1314,23.9527,9.9523,6.4885,4.2115,11.0465,3.0391,13.8705-4.2389,3.1181-8.036,8.0869-10.5032,16.2462-9.6445,11.1272,1.171,22.0835.4113,32.0919-5.6093,2.8902-1.7386,6.9475-.2173,7.9896,1.5119,2.1246,3.5257,1.2122,8.4634-.833,11.6932-2.1949,3.4662-3.8363,6.7346-4.1543,10.744-.02.2524-.19.4904-.274.7405-.6258,1.8638-18.1837,12.7778-20.0861,12.6875-2.9587-.1404-2.684-2.8381-3.7944-4.4427-6.3383-9.1597-12.1384-9.8057-19.7639-2.0899-2.5413,2.5714-4.0425,2.0825-4.7608-1.2967-.4503-2.1185-3.0624-3.9146-3.3736-2.4571-1.3225,6.1941-8.5646,5.7507-10.6704,10.6128-.0001,0-.0081-.0366-.0081-.0366-9.2615-2.4766-13.8774,4.1245-19.0049,9.7258l.0412-.0938c-4.1772-.4546-7.9443.5168-12.0464,1.6515-4.107,1.136-8.957,6.049-14.3975-1.3666-5.3315-7.2671-14.8384-7.4631-16.6991-2.4524-2.9922,8.0577-8.8471,8.4488-15.4715,8.6604l-.5396.3478c-4.1306-6.0329-9.9777-7.7887-16.9288-6.7936l-.4889-.0033c-4.0866-7.4248-9.525-4.9718-14.6255-1.6465-3.7282,2.4306-6.3755,3.9275-7.9028-1.9897-.692-2.681-2.8829-4.2766-5.8352-4.6297-5.9724-.7144-20.9799,10.3333-20.0169,15.9693,1.0926,6.394-1.0976,5.817-5.4696,4.7755-1.6809-.4005-3.6273.3133-5.4526.5194l.1617-.6693s-.196.664-.1947.6629c.9344-4.0158-1.7231-3.7883-4.307-3.6476,0,0,.0621.034.062.0337-.5939-.5285-1.1878-1.0567-1.7817-1.5848,0,0,.0434.0891.0442.089-.6955-5.463-3.7687-8.2212-9.3042-8.1779,0,0,.0022-.0003.0024-.0001-.5546-.5315-1.1094-1.0631-1.6642-1.5946-.51-.4868-1.02-.9736-1.5298-1.4602-.558-.5598-1.1163-1.1198-1.6746-1.6798,0,0,.0249.0498.0253.0498.6419-3.6483-.7285-6.3954-3.0644-9.2607-1.6018-1.9648-5.8109-3.7037-2.6378-7.7114.8027-1.0139-.3986-1.6643-1.4598-2.1007-9.1795-3.7755-14.7154-10.7197-18.7208-19.716-2.3088-5.1857-5.1868-10.7467-11.0977-13.3286,0,0,.0884.0588.0902.0575,1.0437-2.7635.0192-5.241-1.408-7.4365-3.7216-5.7248-4.9454-11.994-4.6124-18.6826,0,0-.0354.0512-.035.0518,2.1122-.2074,5.5794,1.6948,4.769-3.0624-.2913-.3593-.2743-.7034.0511-1.0322.058-1.5668-.0676-3.0141-2.097-3.2225,0,0,.1929.1757.1939.1735.0903-1.0435-.3814-1.7018-1.3686-2.0082,0,0,.037.0528.0377.0528,3.0226-7.6872-5.4339-12.5353-4.852-19.6189,0,0,.0021-.0431.0023-.0434,10.6189.258,22.0283-10.3547,22.56-20.8902.1832-3.6296-.7284-7.3528,1.2438-12.1975,5.0408,5.9375,4.6464,12.7398,4.8289,18.6182.3522,11.3436,2.5202,22.1645,5.8819,32.8762.2841.9053.445,2.2506-.02,2.909-1.0783,1.5267-2.3512.408-3.3134-.3975-6.0329-5.0511-10.2602-2.7013-12.8407,3.5632-1.4008,3.4004-8.1447,4.3143-5.879,7.7777,2.6092,3.9885,7.625-.5898,11.7175-.5576,5.8596.0463,10.6368-3.4673,15.3129-6.7145l-.047.2817c-2.8814,6.08-2.4773,10.5918,5.4868,11.4952l-.0281-.015c-.0662,1.4646.1626,2.7449,1.9181,3.0721,0,0-.1689-.1686-.1689-.1686.4919.6393.9838,1.2785,1.4757,1.9177,0,0-.0567-.0808-.0567-.0808-.0081,1.5102.1839,2.8641,2.1891,2.8006l-.4417.1694.3933-.2628c-.7622,2.7766.3145,3.808,3.0757,3.2408l-.6263.4681.6145-.4875c-.3285,6.028,2.173,8.2159,7.998,5.8939l.5757.2704c-1.9047,2.3442-4.05,4.5958-3.3929,9.2004,4.5267-4.644,7.967-4.736,13.07-1.343,3.3278,2.2127,9.7952,3.0457,13.1799-2.7705,1.3946-2.3964,3.32-2.8899,6.0528-2.0148,1.9544.6258,5.3515,4.506,5.9811-.3094.5414-4.1406,3.0304-9.9582-2.2447-12.7713-7.6576-4.0836-15.4644-7.4383-14.9459-18.1397.1139-2.3515-1.2538-3.9917-4.0096-3.6525l.1745-.3113c.7955-3.7538,2.4957-7.7733-2.8555-9.7216l-.04-.0109ZM279.3946,635.1788c.1728,1.0613.7645,1.5742,1.8632,1.4232l-.5888.2161.565-.2725c-.0043,2.0229,1.3683,2.1355,2.8702,2.0686l-.1311-.0957c2.4497,3.894,4.9644,6.2227,7.8213.3253l.2289-.3617.4203.0807c1.6298.0435,3.3718.2613,3.3996-2.1863l.0318.6341-.0007-.6266c1.1551.3203,1.7162-.1847,1.8271-1.3151l-.1133.1238c1.0512.0213,1.6742-.4951,1.8982-1.5122l-.1358.1303,1.7709-1.6344-.1011.1061c.5411-.5981,1.0822-1.1962,1.6233-1.7943l-.1283.097c1.7436.1343,3.1449-.2735,3.397-2.3011.2715-2.1831-.614-3.5256-2.8964-3.7711-.5756-.5534-1.1511-1.1067-1.7267-1.6602-1.0085-4.678-4.6245-2.6195-7.3556-2.8471l-.5077.068c-6.0083-5.6675-16.1089-5.0324-20.6479,1.2983l-.0244.0247c-.7665.2031-1.2079.5712-.7171,1.4126.0245,1.1507.0489,2.3014.0734,3.452-1.7437,3.0361-.7239,4.4384,2.6354,4.4576.4387.4402.8774.8803,1.316,1.3206.5856.6111,1.1713,1.2222,1.7569,1.8333l-.1338-.1419c.6144.5269,1.2288,1.0538,1.8432,1.5807l-.1331-.1329Z"/>
        <path class="cls-1" d="M394.5276,649.4691c3.3393-4.0332,8.6518-1.5051,12.6154-3.7914,1.8339-1.0579,4.8856-.9285,5.0457,1.8218.3551,6.0996,12.9219,7.7529,6.8133,14.2442-3.3525,3.5625-7.3343,8.362-12.6362,10.3049-1.9497.7146-3.4142,1.2354-3.3128,3.5818.0983,2.2761,1.7875,3.4779,3.5271,3.7277,4.5237.6494,7.5168,2.8103,10.0176,6.7133,1.792,2.7968,4.437,2.7645,5.3586-1.3569.9601-4.2936,3.1394-8.5592-.6152-12.6998-1.1127-1.2269-1.3402-3.1873.449-4.0605,2.0036-.9777,4.1235.1995,4.3376,2.116.6661,5.9628,4.5761,8.9962,11.4893,11.8896-8.2863,1.643-8.4089,5.6257-6.5114,10.9157,1.2198,3.4008,1.2011,7.2274,1.9582,10.8166,1.4727,6.9816-5.0746,6.6973-8.404,9.1933-1.1161.8367-2.3095-.6309-2.5755-2.1009-.4931-2.725.8716-6.6894-2.5984-7.6397-3.9452-1.0805-8.0607-3.062-12.2675-1.9935-9.3031,2.3628-19.4909,1.5186-27.5274,8.6168-4.2384,3.7436-10.1643,1.925-15.3663,2.0186-12.0688.2172-23.729-2.0502-35.1079-6.048-4.6357-1.6287-9.3457-.4549-13.9838.4761,0,.0005-.0192-.0607-.0184-.0629-1.7415-6.15-6.5358-3.2361-10.2725-3.462,0,0-.4614.1009-.4615.1003-1.2393-6.0494-5.7708-2.9573-9.0761-3.2696,0,0-.4488.0179-.4488.0176-7.3561-9.1069-17.4177-12.2885-28.5834-13.0524,0,0-.0446-.023-.0442-.0228-1.8744-5.3496-6.0388-6.641-11.1344-6.2816,0,0-.0129-.0016-.0126-.0015-5.4568-6.4274.3683-10.1754,3.8214-13.8429,4.439-4.7145,6.6427,1.3206,9.6412,3.0062,3.1257,1.7571,5.6238,5.0779,9.903,3.401l.1184.1355c-1.7184,5.6854,5.6417,7.5734,4.9409,13.007,1.9979-2.554,3.5888-4.8493,6.8684-4.5345l.0312-.0133c.6311,7.4767,5.8456,6.9527,11.1001,6.3587l-.0633-.0627c.3266,2.09,1.8193,3.1011,3.5828,3.8451,12.2771,5.1796,25.1646,7.3061,38.2798,5.6126,3.8185-.4931,9.4201.9157,11.7941-4.476l-.0686.0452c1.5796-.03,3.5865.5589,4.6706-.1893,7.862-5.426,11.92-.9638,15.4712,5.4968,1.7906,3.2575,4.3321,7.7718,8.1702,5.1711,3.149-2.1338,4.4113-7.5307,3.9497-11.6163-.2127-1.8833-1.7023-7.0831-6.0214-5.5078-6.4478,2.3517-5.9628.0509-3.3598-4.2098,1.0538-1.725,1.0411-3.4836.9045-5.3342l1.1014-1.356c1.105-.2161,1.7449-.842,1.7701-2.0093l-.1616.0275c2.8801.4481,4.09-.3935,2.577-3.3375l.3046-.5093c7.1771-1.055,6.996-6.4507,6.9438-11.7704l-.108.1188c4.5602-1.2909,3.6162-4.801,3.2562-8.0757l-.0713-.0913Z"/>
        <path class="cls-1" d="M447.1548,824.4976c-6.7137-3.544-14.2543-3.0098-21.4069-4.3955-1.4867-.288-3.6001-.845-4.143-1.9233-3.15-6.2565-6.4678-11.4307-14.942-8.2469-1.7164.6448-3.0075-1.5285-3.7189-3.4104-2.8288-7.4825-6.6029-13.7459-14.4777-17.639-5.4288-2.6838-4.3283-8.9915-2.5717-14.1358,1.9924-5.835,6.8568-10.524,6.1857-17.5082-.2778-2.8913,2.3343-1.7654,4.0712-1.1351,3.5459,1.2867,4.9332,4.6534,6.9534,7.3146,6.8585,9.0346,18.4891,11.154,26.5483,18.6204,3.5155,3.2569,7.98,5.2878,11.2654,9.3814,4.6235,5.7608,13.1597,4.3896,19.2047,8.3088,2.5299,1.6403,5.1212,2.4894,5.036,6.0181.0006-.0004-.0583.0117-.0586.0109-8.5132,2.7089-13.5477,8.7258-16.1858,17.0214-.5867.5729-1.1734,1.1458-1.7601,1.7187Z"/>
        <path class="cls-2" d="M278.5465,672.7442c-4.2791,1.6769-6.7773-1.6438-9.903-3.401-2.9985-1.6856-5.2023-7.7207-9.6412-3.0062-3.4531,3.6675-9.2782,7.4155-3.8214,13.8429-8.4473-3.814-15.9245-9.0684-22.7401-15.3055,1.8243-.2044,3.7707-.9182,5.4516-.5177,4.372,1.0415,6.5621,1.6185,5.4696-4.7755-.963-5.636,14.0445-16.6837,20.0169-15.9693,2.9523.3531,5.1432,1.9488,5.8352,4.6297,1.5273,5.9172,4.1746,4.4203,7.9028,1.9897,5.1006-3.3254,10.5389-5.7784,14.6255,1.6462-1.763.4227-3.7319.4773-5.2552,1.3289-9.1189,5.0979-17.4987,3.845-25.5671-2.3568-1.2903-.9918-2.5499-2.8341-4.8899-1.7834,6.2067,9.2112,14.5815,16.2369,22.5164,23.6779Z"/>
        <path class="cls-2" d="M175.2986,594.7798c5.9109,2.5819,8.7889,8.1429,11.0977,13.3286,4.0054,8.9963,9.5413,15.9405,18.7208,19.716,1.0613.4364,2.2626,1.0868,1.4598,2.1007-3.1731,4.0077,1.0359,5.7466,2.6378,7.7114,2.336,2.8652,3.7063,5.6123,3.0644,9.2607-16.3673-14.5058-27.3036-32.8648-36.9805-52.1173Z"/>
        <path class="cls-2" d="M266.3722,686.4857c11.1657.7639,21.2273,3.9455,28.5834,13.0524-10.1668-2.9512-19.6735-7.3485-28.5834-13.0524Z"/>
        <path class="cls-2" d="M169.3683,568.7182c-.333,6.6886.8908,12.9578,4.6124,18.6826,1.4273,2.1955,2.4517,4.673,1.408,7.4365-4.4995-5.6564-6.8577-12.3645-9.3612-19.0063-1.3404-3.5561-.9548-6.2357,3.3408-7.1128Z"/>
        <path class="cls-2" d="M448.9149,822.7788c2.6381-8.2955,7.6726-14.3125,16.1858-17.0214-4.5165,6.5097-10.0558,12.0465-16.1858,17.0214Z"/>
        <path class="cls-2" d="M166.0675,540.0521c-.5819,7.0836,7.8747,11.9317,4.852,19.6189-3.803-3.3646-5.1834-8.1189-7.0344-12.5578-1.1481-2.7533-1.3735-5.5869,2.1823-7.0612Z"/>
        <path class="cls-2" d="M217.12,651.582c5.5355-.0433,8.6087,2.715,9.3042,8.1779-3.9045-1.8129-6.8151-4.7557-9.3042-8.1779Z"/>
        <path class="cls-2" d="M255.1935,680.1814c5.0956-.3594,9.26.932,11.1344,6.2816-4.1827-1.2591-7.8467-3.4369-11.1344-6.2816Z"/>
        <path class="cls-2" d="M304.942,702.6899c3.7368.2259,8.531-2.688,10.2725,3.462-3.6324-.5367-7.2403-1.1459-10.2725-3.462Z"/>
        <path class="cls-2" d="M295.4044,699.5206c3.3053.3123,7.8368-2.7798,9.0761,3.2696-3.2761-.3932-6.4281-1.132-9.0761-3.2696Z"/>
        <path class="cls-2" d="M228.0997,661.2221c2.584-.1407,5.2415-.3682,4.307,3.6476-1.885-.686-3.4568-1.741-4.307-3.6476Z"/>
        <path class="cls-2" d="M174.1024,565.7076c.8104,4.7572-2.6569,2.855-4.769,3.0624,1.5894-1.0212,3.1792-2.0418,4.769-3.0624Z"/>
        <path class="cls-2" d="M172.0565,561.4529c2.0294.2084,2.155,1.6557,2.097,3.2225-.699-1.0741-1.398-2.1483-2.097-3.2225Z"/>
        <path class="cls-2" d="M212.2538,646.8473c.5583.56,1.1166,1.12,1.6746,1.6798-.5584-.5601-1.1165-1.1199-1.6746-1.6798Z"/>
        <path class="cls-2" d="M215.4582,649.9872c.5548.5316,1.1096,1.0631,1.6642,1.5946-.5549-.5316-1.1095-1.0631-1.6642-1.5946Z"/>
        <path class="cls-2" d="M170.8818,559.6182c.9872.3063,1.4588.9647,1.3686,2.0082-.4568-.6679-.9127-1.338-1.3686-2.0082Z"/>
        <path class="cls-2" d="M226.38,659.671c.5939.5281,1.1878,1.0563,1.7817,1.5848-.5938-.528-1.1878-1.0564-1.7817-1.5848Z"/>
        <path class="cls-3" d="M494.1852,503.1138c11.8402,31.6724,3.7845,62.1512-22.2589,84.2623-1.1606.9854-2.8168,1.5743-2.9425,3.4518l-.0864.0723c-10.3081,4.4832-19.8131,10.6596-30.8876,13.5674-17.3896,4.5659-34.8706,5.6197-52.5781,2.7626-10.8795-1.7554-12.4188-3.3191-10.8679-14.832,4.7083-34.952,22.0579-61.8386,53.137-78.9375,19.8412-10.9161,41.1722-16.2312,64.0611-12.8894l.2021.1134c.735.7864,1.47,1.5728,2.205,2.3592l.0163.0698Z"/>
        <path class="cls-3" d="M278.5465,672.7442c-7.9349-7.441-16.3098-14.4668-22.5164-23.6779,2.34-1.0507,3.5996.7916,4.8899,1.7834,8.0684,6.2018,16.4482,7.4547,25.5671,2.3568,1.5233-.8516,3.4922-.9062,5.2552-1.3289,0,.0002.4889.0035.4918.0014,5.2548,3.2325,10.888,5.5178,16.9259,6.7958,0,0,.5396-.3478.5421-.3513,20.5846,7.2829,39.791,2.1386,58.6119-6.4893,0,0-.0412.0938-.0416.0933,7.0973-1.7519,13.1916-5.4643,19.0053-9.7253,0,0,.0079.0367.0081.0366q8.1913-2.953,7.2419,7.2306s.0712.0911.0726.0925c-1.8327,2.3904-2.7183,5.1624-3.2576,8.0743,0,0,.108-.1188.1091-.1178-2.3143,3.9238-4.6296,7.8466-6.9449,11.7694,0,0-.3046.5093-.3024.5097-.8583,1.1126-1.7187,2.2249-2.5792,3.3371,0,0,.1616-.0275.1623-.0248-.5898.6707-1.1803,1.3387-1.7708,2.0067l-1.1014,1.356c-7.2276,6.4259-14.9865,12.0714-23.785,16.1896,0,0,.0686-.0452.0686-.045-18.559,5.5923-36.321,2.6004-53.6567-4.9819,0,0,.0633.0627.0629.0637-3.3031-2.8121-7.1649-4.6497-11.0997-6.3598,0,0-.0312.0133-.0313.0144-3.9365-2.8238-7.8729-5.6487-11.8093-8.4736l-.1184-.1355Z"/>
        <path class="cls-1" d="M220.128,508.8176c1.2824-3.6195-2.1358-7.4228.905-11.2964,1.1906-1.5167-1.7151-4.1906-3.6315-4.2199-5.3114-.0815-9.4141-2.7763-13.6409-5.2656-3.852-2.2686-6.6837-.6569-6.9228,2.955-.261,3.9424-4.2555,6.1183-3.6551,10.1791.1989,1.3452-.9038,2.5129-2.5272,2.2537-1.6018-.2558-2.0732-1.6275-1.9535-2.9778.4866-5.4878,1.0596-10.9693,1.7308-16.4372.0665-.542,1.2367-1.5029,1.5299-1.3824,10.4082,4.2807,4.3614-6.9114,8.3018-9.0023,1.395-.7403-.1637-2.4499-2.0008-3.038-6.2774-2.0096-8.6123-7.4041-5.5257-13.8968,1.2889-2.7112,2.3348-5.1808,2.2503-8.1886-.1202-4.2754-.1013-8.9447,4.705-10.6711,5.424-1.9483,10.1361.2758,13.5394,4.6741,1.5832,2.0461,3.5448,4.7625,3.3803,7.0335-.7794,10.7647,6.2356,10.8776,13.3134,9.7271,4.5736-.7434,9.8563,4.5229,13.1862-.4847,2.2665-3.4084-1.7574-8.5911.8632-12.8263.2275-.3677.0613-1.4691-.0573-1.4908-7.8065-1.4302-6.6392-7.5204-7.9159-13.1221-.6616-2.9028-5.476-1.9589-7.4157,1.5195-.8498,1.524.3656,3.7559-2.0307,5.3863-4.7314-5.3194-4.1789-11.1619-.5998-16.2659,2.1761-3.1034,1.597-9.46,6.0668-9.0845,3.7553.3155,4.8657,5.8544,5.7682,9.6103,1.1138,4.6349,5.1769,1.8778,8.1445,3.636-7.4129,6.3342-5.4461,11.1926,1.7062,15.5146,1.921,1.1609,4.0602,2.9697,4.2199,5.5137.2977,4.7432,3.2293,7.1765,7.1796,8.4572,3.5427,1.1486,3.9598,2.6433,3.2188,6.3513-2.7373,13.6968-2.4882,13.7586-17.1932,11.8981-2.447-.3096-4.7219.1703-6.9469,1.1197-2.0409.8708-5.395-.8261-6.1444,2.2747-.8798,3.6403,2.5819,3.8682,4.893,4.9398,3.7208,1.7254,3.7423,6.2562,4.1363,8.8511.8367,5.5101-1.7983,11.528,2.8086,16.5537.1966.2144-.3963,1.4745-.899,1.9602q-8.4755,8.1885-9.3764,16.0564c-3.3687-1.5302-.9916-9.8701-7.6659-6.6693.0001-.0001.0418-.2054.0418-.2054.9495-2.6842,1.2933-5.0459-2.7113-5.0926l.0618.0411c.1608-1.533.0011-2.8629-1.941-3.0636l.1544.1261c-.4514-.6656-.9028-1.3311-1.3542-1.9967l.004.0455Z"/>
        <path class="cls-3" d="M205.5617,564.9957c-7.6089-21.5888-9.6134-43.5514-4.3223-65.9784,1.7696-7.5006,2.698-7.8702,7.9775-2.5678,3.8721,3.8889,7.2908,8.2292,10.9113,12.3682-.0002,0-.0042-.0456-.0039-.0455.4515.6656.9027,1.3311,1.3538,1.9966,0,0-.1544-.1261-.1528-.1267.1866,1.3125.5978,2.4825,1.9395,3.0641,0,0-.0618-.0411-.0615-.0415.2428,2.0492,1.3092,3.6603,2.711,5.093,0,0-.0417.2053-.0418.2054,4.3393,10.928,8.6787,21.8559,13.0176,32.7834-.0004-.0004.0396.0105.0405.0102.325,3.4245,1.1577,6.7,2.8546,9.7218,0,0-.1745.3113-.1731.3102,1.8453,10.56,3.7028,21.1188,5.5262,31.6835.7117,4.1235-.6182,5.8249-5.1255,4.8811-4.9206-1.0304-9.4995-2.8708-14.093-4.7626,0,0-.5757-.2704-.5772-.2671-2.6665-1.9635-5.3315-3.9303-7.9965-5.8972l-.6145.4875s.6263-.4681.6251-.4666c-.5366-1.5431-1.5707-2.6152-3.0745-3.2423l-.3933.2628s.4417-.1694.4393-.1678c-.3053-1.2643-.8632-2.3314-2.1867-2.8022,0,0,.0567.0808.0564.0807-.492-.6393-.9837-1.2785-1.4754-1.9176,0,0,.1689.1686.1677.1688-.1794-1.3111-.5679-2.4911-1.9169-3.0723,0,0,.0281.015.0281.0153-1.8289-3.8316-3.6579-7.6636-5.4868-11.4956l.047-.2817Z"/>
        <path class="cls-1" d="M468.9838,590.8279c4.132-.0511,6.7339-1.8476,9.6875-5.1416,5.786-6.4527,10.8292-13.433,16.2931-20.1008.329-.4015.9945-.7845.9875-1.1667-.2108-11.5602,7.0137-6.5085,13.266-5.8946-3.8744,5.9525-4.2748,10.0877,2.0039,14.8767,3.8361,2.926.8945,10.7677-2.044,13.401-3.0304,2.7155-9.5056,3.0664-13.6304-1.1519-1.6146-1.6512-2.9899-5.1147-5.2448-3.3445-2.6445,2.076-.2925,5.4771,1.2686,7.5303,2.5466,3.3492,4.5962,5.8965,1.6522,10.4109-3.5051,5.3748-8.1427,7.8812-14.1932,8.2276-3.3591.1922-3.8424-3.0744-3.9058-5.0161-.1728-5.2928-2.8906-9.0043-6.2235-12.5598-.0035.0019.0829-.0704.0829-.0704Z"/>
        <path class="cls-1" d="M372.2815,549.9289c10.2415-.0129,9.9462.411,7.4213,9.7952-1.3267,4.931-4.1261,9.3793-4.1579,14.9142-.0325,5.6539-5.2671,9.2515-9.3085,11.9633-3.7202,2.4963-5.0072-3.2829-6.9442-5.4953-2.0409-2.3311-4.735-6.5096-.461-8.76,4.9836-2.6239,5.7851-8.6763,10.8123-11.0898,2.1359-1.0254,1.858-3.7046-.0491-5.367-1.921-1.6747-3.2742-.0604-4.716,1.1326-1.6936,1.4013-2.7997,6.087-5.643,2.6212-2.2582-2.7526,1.6682-4.0887,3.5755-5.7233,3.0853-2.6441,6.0443-5.2868,9.4705-3.9911Z"/>
        <path class="cls-1" d="M491.7618,500.5713c-1.0276-2.4086-2.3414-4.7428-2.9918-7.2492-.516-1.9886-.5169-4.4203,1.5565-5.7443,2.6461-1.6898,3.7209.5843,4.8137,2.3767,1.0351,1.6975,2.4947,3.1372,4.4506,2.6746,6.1306-1.4501,8.1954-.5042,4.1401,5.633-1.1603,1.756,1.1627,2.6193,2.5012,3.2457,1.8963.8875,4.0023,1.3438,5.8588,2.2961,10.656,5.4667,11.1649,9.8947,1.6269,16.692-4.7675,3.3976-9.0204,6.5286-6.4484,13.3807.7231,1.9264-.2319,4.0189-2.4353,4.107-2.1228.0849-2.047-2.1292-1.8868-3.609.7204-6.6545-1.522-13.3924,2.2165-20.0447,3.3372-5.938-2.476-11.5054-10.9783-11.2167-.0003.0005-.0166-.0693-.0137-.071.4107-1.8613-.8529-2.1523-2.2079-2.3575l-.2021-.1134Z"/>
        <path class="cls-1" d="M420.4009,753.0145c0-3.1517-.2131-6.3217.0568-9.4501.3008-3.4861,2.1762-6.1816,5.9493-5.9648,3.1511.181,4.5642,2.2376,5.2099,5.7158,1.3765,7.4132,3.7114,14.5922-3.5435,20.5027-1.7561,1.4308-2.6325,4.2135-5.5988,3.2234-2.6621-.8886-2.0438-3.3467-2.0991-5.3593-.0793-2.8873-.0202-5.7782-.0202-8.6677h.0455Z"/>
        <path class="cls-1" d="M253.8148,477.0244c7.7111,7.6647,11.3598,23.8601,7.5733,30.9887-1.9037,3.5839-4.5492,1.0277-5.487-.5523-3.2148-5.4164-3.5692-11.9494-7.8359-17.3734-1.8088-2.2994,5.7546-6.7274,5.7496-13.063Z"/>
        <path class="cls-1" d="M499.8334,613.2408c-.4045-5.5124,3.2472-6.3841,6.5482-6.8739,4.0598-.6024,2.7589,2.9118,2.7465,4.8413-.0266,4.1727-3.4514,5.9969-6.6333,6.4485-3.6004.5109-2.4203-3.0735-2.6614-4.4158Z"/>
        <path class="cls-1" d="M472.0978,599.1095c-1.8234,3.8897-3.7119,5.6628-7.0626,3.8312-1.1541-.6309-2.1956-2.1655-1.4359-3.255,2.6359-3.7806,5.2298.7936,8.4985-.5761Z"/>
        <path class="cls-1" d="M379.7835,790.2571c2.6735.2448,5.3825-.0416,6.484,2.778.4917,1.2587-1.0289,2.434-2.3134,2.5393-3.5148.2881-4.0796-2.0911-4.1706-5.3172Z"/>
        <path class="cls-1" d="M365.8895,604.8951c-3.4193-.247-4.9198-1.7219-5.09-4.3947-.0218-.3428,1.2242-1.1781,1.7368-1.073,2.474.5078,3.0634,2.4908,3.3532,5.4677Z"/>
        <path class="cls-1" d="M504.8307,625.2513c1.6766-.1525,2.5157.2583,2.5147,1.5613-.0008,1.1068-.4535,2.0519-1.7047,2.1492-1.0585.0824-2.2771-.1234-2.0832-1.5092.1211-.8662.927-1.6366,1.2732-2.2012Z"/>
        <path class="cls-1" d="M459.0991,602.9442c-.3882.1642-1.0102.649-1.6243.6391-1.1609-.0188-1.8174-.8146-1.2142-1.8903.2401-.4282,1.2707-.6302,1.9024-.5639.7087.0745,1.3671.5732.936,1.8151Z"/>
        <path class="cls-1" d="M513.9755,551.1412c-.6416.4488-1.255,1.1856-1.6649,1.0859-.5008-.1219-1.1272-.9215-1.1717-1.4707-.0865-1.0694.564-1.9697,1.7469-1.5947.4646.1473.6587,1.1481,1.0897,1.9796Z"/>
        <path class="cls-1" d="M522.3349,555.6948c-.4384-.1903-1.1177-.2849-1.2428-.5998-.1247-.3136.3066-.8483.494-1.2861.4371.1892,1.1203.2822,1.2425.5945.1242.3175-.3048.8514-.4937,1.2913Z"/>
        <path class="cls-3" d="M292.4435,638.5628l-.4203-.0807s-.2289.3617-.229.3617c-2.6352.5654-5.2479.5939-7.8211-.3253,0,0,.1311.0957.1306.0961-.9569-.6894-1.9133-1.3792-2.8697-2.0689l-.565.2725s.5888-.2161.5871-.2146c-.6216-.4739-1.2416-.9493-1.8615-1.4247,0,0,.1331.1329.132.1331-.6148-.5268-1.2284-1.0539-1.842-1.581,0,0,.1338.1419.1329.1417-.5859-.6112-1.171-1.2221-1.7561-1.8331-.4387-.4402-.8773-.8804-1.316-1.3206-.8785-1.4858-1.757-2.9718-2.6354-4.4576-.0245-1.1507-.0489-2.3014-.0735-3.4518.239-.4708.4781-.9418.7172-1.4128,0,0,.0245-.0247.0242-.0244,6.7213-2.9967,13.735-1.3485,20.6481-1.2985,0,0,.5077-.068.51-.069,2.4526.9487,4.9029,1.8984,7.3532,2.8481.5756.5534,1.1511,1.1068,1.7265,1.6599-.1669,2.0239-.3337,4.0482-.5005,6.0725,0,0,.1283-.097.1284-.0961-.5411.5984-1.0822,1.1959-1.6234,1.7934,0,0,.1011-.1061.1011-.1056-.5903.545-1.1806,1.0895-1.7709,1.6339,0,0,.1358-.1303.1358-.1296-.6327.5044-1.2654,1.0079-1.8982,1.5115,0,0,.1133-.1238.1136-.1223-.6089.4389-1.2181.8762-1.8273,1.3136l.0007.6266s-.0318-.6341-.0307-.6319c-1.1329.7294-2.2668,1.4568-3.4007,2.1841Z"/>
        <path class="cls-2" d="M227.9198,593.5908c4.5935,1.8918,9.1724,3.7322,14.093,4.7626,4.5073.9438,5.8372-.7577,5.1255-4.8811-1.8234-10.5647-3.6809-21.1235-5.5262-31.6835,2.7543-.3381,4.122,1.3021,4.0081,3.6536-.5185,10.7014,7.2883,14.0561,14.9459,18.1397,5.2751,2.8131,2.7861,8.6307,2.2447,12.7713-.6297,4.8155-4.0268.9353-5.9811.3094-2.7328-.8751-4.6583-.3816-6.0528,2.0148-3.3848,5.8162-9.8521,4.9832-13.1799,2.7705-5.103-3.3929-8.5433-3.301-13.07,1.343-.6571-4.6046,1.4882-6.8562,3.3929-9.2004Z"/>
        <path class="cls-2" d="M368.3141,651.8341c-18.8209,8.6279-38.0273,13.7723-58.6119,6.4893,6.6219-.2081,12.4768-.5992,15.4689-8.6569,1.8607-5.0107,11.3676-4.8146,16.6991,2.4524,5.4405,7.4156,10.2905,2.5026,14.3975,1.3666,4.1021-1.1347,7.8692-2.1061,12.0464-1.6515Z"/>
        <path class="cls-2" d="M387.2777,642.2021c-5.8136,4.261-11.908,7.9734-19.0053,9.7253,5.1279-5.6008,9.7438-12.2019,19.0053-9.7253Z"/>
        <path class="cls-2" d="M293.4259,620.0738c-6.9132-.05-13.9269-1.6982-20.6481,1.2985,4.5392-6.3309,14.6399-6.966,20.6481-1.2985Z"/>
        <path class="cls-2" d="M205.5147,565.2773c1.8289,3.8319,3.6579,7.6639,5.4868,11.4956-7.9641-.9038-8.3682-5.4156-5.4868-11.4956Z"/>
        <path class="cls-2" d="M309.16,658.6748c-6.0379-1.278-11.6711-3.5633-16.9259-6.7958,6.9481-.9929,12.7953.7629,16.9259,6.7958Z"/>
        <path class="cls-2" d="M219.3462,587.4265c2.665,1.9668,5.33,3.9337,7.9965,5.8972-5.8235,2.3187-8.3249.1308-7.9965-5.8972Z"/>
        <path class="cls-2" d="M283.9731,638.5185c2.5732.9192,5.1859.8908,7.8211.3253-2.8567,5.8974-5.3715,3.5686-7.8211-.3253Z"/>
        <path class="cls-2" d="M302.5152,630.5852c.1668-2.0242.3335-4.0485.5005-6.0725,2.2825.2457,3.168,1.5882,2.8965,3.7714-.2521,2.0276-1.6535,2.4354-3.397,2.3011Z"/>
        <path class="cls-2" d="M241.7852,561.4786c-1.6969-3.0218-2.5296-6.2973-2.8546-9.7218,5.3503,1.9485,3.6501,5.968,2.8546,9.7218Z"/>
        <path class="cls-2" d="M301.2892,622.8528c-2.4503-.9497-4.9006-1.8994-7.3532-2.8481,2.7287.2286,6.3448-1.8299,7.3532,2.8481Z"/>
        <path class="cls-2" d="M272.1099,626.2613c.8785,1.4859,1.7569,2.9718,2.6354,4.4576-3.3593-.0192-4.3791-1.4216-2.6354-4.4576Z"/>
        <path class="cls-2" d="M216.2823,584.2052c1.5038.6271,2.5379,1.6993,3.0745,3.2423-2.76.5657-3.8367-.4657-3.0745-3.2423Z"/>
        <path class="cls-2" d="M214.1416,581.498c1.3235.4707,1.8814,1.5379,2.1867,2.8022-2.0028.0619-2.1948-1.2919-2.1867-2.8022Z"/>
        <path class="cls-2" d="M210.9734,576.7576c1.3491.5811,1.7376,1.7612,1.9169,3.0723-1.7543-.3274-1.9832-1.6077-1.9169-3.0723Z"/>
        <path class="cls-2" d="M292.4435,638.5628c1.134-.7273,2.2679-1.4546,3.4007-2.1841-.029,2.4454-1.7709,2.2275-3.4007,2.1841Z"/>
        <path class="cls-2" d="M281.234,636.5456c.9564.6898,1.9127,1.3795,2.8697,2.0689-1.5013.0665-2.8739-.0461-2.8697-2.0689Z"/>
        <path class="cls-2" d="M212.7226,579.6611c.4917.6392.9834,1.2784,1.4754,1.9176-.4916-.6392-.9835-1.2784-1.4754-1.9176Z"/>
        <path class="cls-2" d="M301.0202,632.2825c.5411-.5975,1.0823-1.195,1.6234-1.7934-.5412.5972-1.0823,1.1953-1.6234,1.7934Z"/>
        <path class="cls-2" d="M276.0613,632.0395c.5851.611,1.1702,1.222,1.7561,1.8331-.5848-.6109-1.1705-1.222-1.7561-1.8331Z"/>
        <path class="cls-2" d="M297.588,635.1927c.6327-.5036,1.2654-1.0072,1.8982-1.5115-.224,1.0165-.8469,1.5328-1.8982,1.5115Z"/>
        <path class="cls-2" d="M272.7536,621.3967c-.2391.471-.4782.9421-.7172,1.4128-.4906-.8416-.0493-1.2098.7172-1.4128Z"/>
        <path class="cls-2" d="M299.3504,633.8108c.5903-.5445,1.1806-1.0889,1.7709-1.6339-.5903.5443-1.1806,1.0891-1.7709,1.6339Z"/>
        <path class="cls-2" d="M277.6845,633.7309c.6136.5271,1.2272,1.0541,1.842,1.581-.6132-.5271-1.2277-1.054-1.842-1.581Z"/>
        <path class="cls-2" d="M279.3946,635.1788c.62.4753,1.2399.9507,1.8615,1.4247-1.0971.1495-1.6887-.3634-1.8615-1.4247Z"/>
        <path class="cls-2" d="M295.8742,636.384c.6092-.4374,1.2184-.8747,1.8273-1.3136-.1111,1.1289-.6722,1.6339-1.8273,1.3136Z"/>
        <path class="cls-2" d="M355.1305,692.6619c8.7985-4.1182,16.5574-9.7637,23.785-16.1896.1366,1.8506.1493,3.6092-.9045,5.3342-2.6029,4.2607-3.088,6.5615,3.3598,4.2098,4.3191-1.5753,5.8086,3.6245,6.0214,5.5078.4616,4.0856-.8008,9.4825-3.9497,11.6163-3.8381,2.6008-6.3797-1.9136-8.1702-5.1711-3.5512-6.4606-7.6092-10.9228-15.4712-5.4968-1.0841.7482-3.091.1593-4.6706.1893Z"/>
        <path class="cls-2" d="M301.5423,687.635c17.3357,7.5823,35.0977,10.5742,53.6567,4.9819-2.374,5.3915-7.9757,3.9827-11.7942,4.4758-13.1152,1.6935-26.0026-.433-38.2798-5.6126-1.7636-.744-3.2562-1.7551-3.5828-3.8451Z"/>
        <path class="cls-2" d="M278.6649,672.8797c3.9364,2.8249,7.8728,5.6498,11.8093,8.4736-3.2795-.3158-4.8705,1.9795-6.8683,4.5334.7008-5.4336-6.6593-7.3216-4.9409-13.007Z"/>
        <path class="cls-2" d="M290.5055,681.3389c3.9349,1.7101,7.7966,3.5477,11.0997,6.3598-5.2541.5929-10.4686,1.117-11.0997-6.3598Z"/>
        <path class="cls-2" d="M384.5069,669.2877c2.3153-3.9228,4.6306-7.8456,6.9449-11.7694.0511,5.3187.2322,10.7145-6.9449,11.7694Z"/>
        <path class="cls-2" d="M391.3427,657.6361c.5393-2.9118,1.4249-5.6838,3.2576-8.0743.3586,3.2732,1.3026,6.7834-3.2576,8.0743Z"/>
        <path class="cls-2" d="M381.6254,673.1345c.8605-1.1122,1.7209-2.2245,2.5792-3.3371,1.5108,2.9436.3009,3.7852-2.5792,3.3371Z"/>
        <path class="cls-2" d="M380.0169,675.1163c.5905-.668,1.181-1.336,1.7708-2.0067-.0259,1.1647-.6658,1.7906-1.7708,2.0067Z"/>
        <path class="cls-2" d="M491.9639,500.6848c1.3551.2052,2.6186.4963,2.2079,2.3575-.738-.7847-1.473-1.5711-2.2079-2.3575Z"/>
        <path class="cls-2" d="M225.9143,518.7577c-1.4018-1.4327-2.4682-3.0438-2.711-5.093,4.0043.047,3.6605,2.4088,2.711,5.093Z"/>
        <path class="cls-2" d="M223.2648,513.7062c-1.3417-.5816-1.7528-1.7516-1.9395-3.0641,1.9406.2012,2.1002,1.5311,1.9395,3.0641Z"/>
        <path class="cls-2" d="M221.4782,510.7688c-.4512-.6655-.9023-1.331-1.3538-1.9966.451.6655.9024,1.331,1.3538,1.9966Z"/>
      </g>
    </g>
  </g>
</svg>